{
  "header": {
    "PPQ": 96,
    "timeSignature": [
      4,
      4
    ],
    "bpm": 120,
    "name": ""
  },
  "tempo": [],
  "timeSignature": [
    {
      "absoluteTime": 0,
      "seconds": 0,
      "numerator": 4,
      "denominator": 2,
      "click": 36,
      "notesQ": 8
    },
    {
      "absoluteTime": 0,
      "seconds": 0,
      "numerator": 4,
      "denominator": 2,
      "click": 36,
      "notesQ": 8
    }
  ],
  "startTime": 3.8802083333333335,
  "duration": 8.005208333333334,
  "tracks": [
    {
      "startTime": 3.8802083333333335,
      "duration": 8.005208333333334,
      "length": 33,
      "notes": [
        {
          "name": "C2",
          "midi": 36,
          "time": 3.8802083333333335,
          "velocity": 0.7874015748031497,
          "duration": 0.12500000000000044
        },
        {
          "name": "C#2",
          "midi": 37,
          "time": 4.005208333333334,
          "velocity": 0.7874015748031497,
          "duration": 0.13541666666666696
        },
        {
          "name": "D2",
          "midi": 38,
          "time": 4.140625000000001,
          "velocity": 0.7874015748031497,
          "duration": 0.109375
        },
        {
          "name": "D#2",
          "midi": 39,
          "time": 4.250000000000001,
          "velocity": 0.7874015748031497,
          "duration": 0.13020833333333304
        },
        {
          "name": "E2",
          "midi": 40,
          "time": 4.380208333333334,
          "velocity": 0.7874015748031497,
          "duration": 0.125
        },
        {
          "name": "F2",
          "midi": 41,
          "time": 4.505208333333334,
          "velocity": 0.7874015748031497,
          "duration": 0.11458333333333304
        },
        {
          "name": "F#2",
          "midi": 42,
          "time": 4.619791666666667,
          "velocity": 0.7874015748031497,
          "duration": 0.13541666666666696
        },
        {
          "name": "G2",
          "midi": 43,
          "time": 4.755208333333334,
          "velocity": 0.7874015748031497,
          "duration": 0.125
        },
        {
          "name": "G#2",
          "midi": 44,
          "time": 4.880208333333334,
          "velocity": 0.7874015748031497,
          "duration": 0.125
        },
        {
          "name": "A2",
          "midi": 45,
          "time": 5.005208333333334,
          "velocity": 0.7874015748031497,
          "duration": 0.11979166666666696
        },
        {
          "name": "A#2",
          "midi": 46,
          "time": 5.130208333333334,
          "velocity": 0.7874015748031497,
          "duration": 0.125
        },
        {
          "name": "B2",
          "midi": 47,
          "time": 5.255208333333334,
          "velocity": 0.7874015748031497,
          "duration": 0.125
        },
        {
          "name": "C3",
          "midi": 48,
          "time": 5.380208333333334,
          "velocity": 0.7874015748031497,
          "duration": 0.125
        },
        {
          "name": "C#3",
          "midi": 49,
          "time": 5.505208333333334,
          "velocity": 0.7874015748031497,
          "duration": 0.14583333333333304
        },
        {
          "name": "D3",
          "midi": 50,
          "time": 5.651041666666667,
          "velocity": 0.7874015748031497,
          "duration": 0.10416666666666696
        },
        {
          "name": "D#3",
          "midi": 51,
          "time": 5.755208333333334,
          "velocity": 0.7874015748031497,
          "duration": 0.125
        },
        {
          "name": "E3",
          "midi": 52,
          "time": 5.880208333333334,
          "velocity": 0.7874015748031497,
          "duration": 0.125
        },
        {
          "name": "F3",
          "midi": 53,
          "time": 6.005208333333334,
          "velocity": 0.7874015748031497,
          "duration": 0.13541666666666696
        },
        {
          "name": "F#3",
          "midi": 54,
          "time": 6.140625000000001,
          "velocity": 0.7874015748031497,
          "duration": 0.109375
        },
        {
          "name": "G3",
          "midi": 55,
          "time": 6.250000000000001,
          "velocity": 0.7874015748031497,
          "duration": 0.13020833333333304
        },
        {
          "name": "G#3",
          "midi": 56,
          "time": 6.380208333333334,
          "velocity": 0.7874015748031497,
          "duration": 0.125
        },
        {
          "name": "A3",
          "midi": 57,
          "time": 6.505208333333334,
          "velocity": 0.7874015748031497,
          "duration": 0.125
        },
        {
          "name": "A#3",
          "midi": 58,
          "time": 6.630208333333334,
          "velocity": 0.7874015748031497,
          "duration": 0.11979166666666696
        },
        {
          "name": "B3",
          "midi": 59,
          "time": 6.750000000000001,
          "velocity": 0.7874015748031497,
          "duration": 0.13020833333333304
        },
        {
          "name": "C4",
          "midi": 60,
          "time": 6.880208333333334,
          "velocity": 0.7874015748031497,
          "duration": 0.125
        },
        {
          "name": "C#4",
          "midi": 61,
          "time": 7.005208333333334,
          "velocity": 0.7874015748031497,
          "duration": 0.11458333333333304
        },
        {
          "name": "D4",
          "midi": 62,
          "time": 7.119791666666667,
          "velocity": 0.7874015748031497,
          "duration": 0.13541666666666696
        },
        {
          "name": "D#4",
          "midi": 63,
          "time": 7.255208333333334,
          "velocity": 0.7874015748031497,
          "duration": 0.125
        },
        {
          "name": "E4",
          "midi": 64,
          "time": 7.380208333333334,
          "velocity": 0.7874015748031497,
          "duration": 0.125
        },
        {
          "name": "F4",
          "midi": 65,
          "time": 7.505208333333334,
          "velocity": 0.7874015748031497,
          "duration": 0.11979166666666696
        },
        {
          "name": "F#4",
          "midi": 66,
          "time": 7.625000000000001,
          "velocity": 0.7874015748031497,
          "duration": 0.13020833333333304
        },
        {
          "name": "G4",
          "midi": 67,
          "time": 7.755208333333334,
          "velocity": 0.7874015748031497,
          "duration": 0.125
        },
        {
          "name": "G#4",
          "midi": 68,
          "time": 7.880208333333334,
          "velocity": 0.7874015748031497,
          "duration": 0.125
        }
      ],
      "controlChanges": {},
      "id": 0,
      "name": "ZOOM0036_rhythm_loop (Freeze)",
      "channelNumber": 0,
      "isPercussion": false
    }
  ]
}