{
  "header": {
    "PPQ": 96,
    "timeSignature": [
      4,
      4
    ],
    "bpm": 120,
    "name": ""
  },
  "startTime": 0.0625,
  "duration": 7.90625,
  "tracks": [
    {
      "startTime": 0.0625,
      "duration": 7.90625,
      "length": 88,
      "notes": [
        {
          "name": "G#2",
          "midi": 44,
          "time": 0.0625,
          "velocity": 0.968503937007874,
          "duration": 0.03125
        },
        {
          "name": "B2",
          "midi": 47,
          "time": 0.1875,
          "velocity": 0.968503937007874,
          "duration": 0.03125
        },
        {
          "name": "E3",
          "midi": 52,
          "time": 0.25,
          "velocity": 0.968503937007874,
          "duration": 0.03125
        },
        {
          "name": "E2",
          "midi": 40,
          "time": 0.3125,
          "velocity": 0.968503937007874,
          "duration": 0.03125
        },
        {
          "name": "E3",
          "midi": 52,
          "time": 0.375,
          "velocity": 0.968503937007874,
          "duration": 0.03125
        },
        {
          "name": "A2",
          "midi": 45,
          "time": 0.4375,
          "velocity": 0.968503937007874,
          "duration": 0.03125
        },
        {
          "name": "D2",
          "midi": 38,
          "time": 0.5625,
          "velocity": 0.968503937007874,
          "duration": 0.03125
        },
        {
          "name": "F#2",
          "midi": 42,
          "time": 0.6875,
          "velocity": 0.968503937007874,
          "duration": 0.03125
        },
        {
          "name": "D#3",
          "midi": 51,
          "time": 0.75,
          "velocity": 0.968503937007874,
          "duration": 0.03125
        },
        {
          "name": "D2",
          "midi": 38,
          "time": 0.8125,
          "velocity": 0.968503937007874,
          "duration": 0.03125
        },
        {
          "name": "A#2",
          "midi": 46,
          "time": 0.9375,
          "velocity": 0.968503937007874,
          "duration": 0.03125
        },
        {
          "name": "E3",
          "midi": 52,
          "time": 1,
          "velocity": 0.968503937007874,
          "duration": 0.03125
        },
        {
          "name": "D#2",
          "midi": 39,
          "time": 1.0625,
          "velocity": 0.968503937007874,
          "duration": 0.03125
        },
        {
          "name": "D#2",
          "midi": 39,
          "time": 1.1875,
          "velocity": 0.968503937007874,
          "duration": 0.03125
        },
        {
          "name": "C#2",
          "midi": 37,
          "time": 1.3125,
          "velocity": 0.968503937007874,
          "duration": 0.03125
        },
        {
          "name": "D#3",
          "midi": 51,
          "time": 1.375,
          "velocity": 0.968503937007874,
          "duration": 0.03125
        },
        {
          "name": "A2",
          "midi": 45,
          "time": 1.4375,
          "velocity": 0.968503937007874,
          "duration": 0.03125
        },
        {
          "name": "C#3",
          "midi": 49,
          "time": 1.5,
          "velocity": 0.968503937007874,
          "duration": 0.03125
        },
        {
          "name": "C#2",
          "midi": 37,
          "time": 1.5625,
          "velocity": 0.968503937007874,
          "duration": 0.03125
        },
        {
          "name": "D3",
          "midi": 50,
          "time": 1.625,
          "velocity": 0.968503937007874,
          "duration": 0.03125
        },
        {
          "name": "F2",
          "midi": 41,
          "time": 1.6875,
          "velocity": 0.968503937007874,
          "duration": 0.03125
        },
        {
          "name": "D3",
          "midi": 50,
          "time": 1.75,
          "velocity": 0.968503937007874,
          "duration": 0.03125
        },
        {
          "name": "C#3",
          "midi": 49,
          "time": 1.8125,
          "velocity": 0.968503937007874,
          "duration": 0.03125
        },
        {
          "name": "B2",
          "midi": 47,
          "time": 1.9375,
          "velocity": 0.968503937007874,
          "duration": 0.03125
        },
        {
          "name": "G2",
          "midi": 43,
          "time": 2.0625,
          "velocity": 0.968503937007874,
          "duration": 0.03125
        },
        {
          "name": "C#2",
          "midi": 37,
          "time": 2.1875,
          "velocity": 0.968503937007874,
          "duration": 0.03125
        },
        {
          "name": "F#2",
          "midi": 42,
          "time": 2.3125,
          "velocity": 0.968503937007874,
          "duration": 0.03125
        },
        {
          "name": "F#2",
          "midi": 42,
          "time": 2.4375,
          "velocity": 0.968503937007874,
          "duration": 0.03125
        },
        {
          "name": "D3",
          "midi": 50,
          "time": 2.5,
          "velocity": 0.968503937007874,
          "duration": 0.03125
        },
        {
          "name": "C3",
          "midi": 48,
          "time": 2.5625,
          "velocity": 0.968503937007874,
          "duration": 0.03125
        },
        {
          "name": "D#3",
          "midi": 51,
          "time": 2.625,
          "velocity": 0.968503937007874,
          "duration": 0.03125
        },
        {
          "name": "D2",
          "midi": 38,
          "time": 2.6875,
          "velocity": 0.968503937007874,
          "duration": 0.03125
        },
        {
          "name": "D#2",
          "midi": 39,
          "time": 2.8125,
          "velocity": 0.968503937007874,
          "duration": 0.03125
        },
        {
          "name": "F2",
          "midi": 41,
          "time": 2.9375,
          "velocity": 0.968503937007874,
          "duration": 0.03125
        },
        {
          "name": "C#2",
          "midi": 37,
          "time": 3.0625,
          "velocity": 0.968503937007874,
          "duration": 0.03125
        },
        {
          "name": "A#2",
          "midi": 46,
          "time": 3.1875,
          "velocity": 0.968503937007874,
          "duration": 0.03125
        },
        {
          "name": "D#2",
          "midi": 39,
          "time": 3.3125,
          "velocity": 0.968503937007874,
          "duration": 0.03125
        },
        {
          "name": "D#2",
          "midi": 39,
          "time": 3.4375,
          "velocity": 0.968503937007874,
          "duration": 0.03125
        },
        {
          "name": "E3",
          "midi": 52,
          "time": 3.5,
          "velocity": 0.968503937007874,
          "duration": 0.03125
        },
        {
          "name": "C#2",
          "midi": 37,
          "time": 3.5625,
          "velocity": 0.968503937007874,
          "duration": 0.03125
        },
        {
          "name": "C#3",
          "midi": 49,
          "time": 3.625,
          "velocity": 0.968503937007874,
          "duration": 0.03125
        },
        {
          "name": "D2",
          "midi": 38,
          "time": 3.6875,
          "velocity": 0.968503937007874,
          "duration": 0.03125
        },
        {
          "name": "C3",
          "midi": 48,
          "time": 3.8125,
          "velocity": 0.968503937007874,
          "duration": 0.03125
        },
        {
          "name": "A#2",
          "midi": 46,
          "time": 3.9375,
          "velocity": 0.968503937007874,
          "duration": 0.03125
        },
        {
          "name": "D#2",
          "midi": 39,
          "time": 4,
          "velocity": 0.7874015748031497,
          "duration": 0.03125
        },
        {
          "name": "C#3",
          "midi": 49,
          "time": 4.0625,
          "velocity": 0.7874015748031497,
          "duration": 0.03125
        },
        {
          "name": "F#2",
          "midi": 42,
          "time": 4.125,
          "velocity": 0.952755905511811,
          "duration": 0.03125
        },
        {
          "name": "D#2",
          "midi": 39,
          "time": 4.1875,
          "velocity": 0.952755905511811,
          "duration": 0.03125
        },
        {
          "name": "C#2",
          "midi": 37,
          "time": 4.25,
          "velocity": 0.952755905511811,
          "duration": 0.03125
        },
        {
          "name": "D3",
          "midi": 50,
          "time": 4.3125,
          "velocity": 0.952755905511811,
          "duration": 0.03125
        },
        {
          "name": "B2",
          "midi": 47,
          "time": 4.375,
          "velocity": 0.952755905511811,
          "duration": 0.03125
        },
        {
          "name": "D#2",
          "midi": 39,
          "time": 4.5,
          "velocity": 0.952755905511811,
          "duration": 0.03125
        },
        {
          "name": "D2",
          "midi": 38,
          "time": 4.625,
          "velocity": 0.952755905511811,
          "duration": 0.03125
        },
        {
          "name": "G2",
          "midi": 43,
          "time": 4.75,
          "velocity": 0.952755905511811,
          "duration": 0.03125
        },
        {
          "name": "C3",
          "midi": 48,
          "time": 4.875,
          "velocity": 0.952755905511811,
          "duration": 0.03125
        },
        {
          "name": "D#3",
          "midi": 51,
          "time": 4.9375,
          "velocity": 0.952755905511811,
          "duration": 0.03125
        },
        {
          "name": "A#2",
          "midi": 46,
          "time": 5,
          "velocity": 0.952755905511811,
          "duration": 0.03125
        },
        {
          "name": "D3",
          "midi": 50,
          "time": 5.0625,
          "velocity": 0.952755905511811,
          "duration": 0.03125
        },
        {
          "name": "A#2",
          "midi": 46,
          "time": 5.125,
          "velocity": 0.952755905511811,
          "duration": 0.03125
        },
        {
          "name": "E3",
          "midi": 52,
          "time": 5.1875,
          "velocity": 0.952755905511811,
          "duration": 0.03125
        },
        {
          "name": "G2",
          "midi": 43,
          "time": 5.25,
          "velocity": 0.952755905511811,
          "duration": 0.03125
        },
        {
          "name": "C#2",
          "midi": 37,
          "time": 5.375,
          "velocity": 0.952755905511811,
          "duration": 0.03125
        },
        {
          "name": "D3",
          "midi": 50,
          "time": 5.4375,
          "velocity": 0.952755905511811,
          "duration": 0.03125
        },
        {
          "name": "A#2",
          "midi": 46,
          "time": 5.5,
          "velocity": 0.952755905511811,
          "duration": 0.03125
        },
        {
          "name": "A#2",
          "midi": 46,
          "time": 5.625,
          "velocity": 0.952755905511811,
          "duration": 0.03125
        },
        {
          "name": "C#2",
          "midi": 37,
          "time": 5.75,
          "velocity": 0.952755905511811,
          "duration": 0.03125
        },
        {
          "name": "C#2",
          "midi": 37,
          "time": 5.875,
          "velocity": 0.952755905511811,
          "duration": 0.03125
        },
        {
          "name": "B2",
          "midi": 47,
          "time": 6,
          "velocity": 0.952755905511811,
          "duration": 0.03125
        },
        {
          "name": "G#2",
          "midi": 44,
          "time": 6.125,
          "velocity": 0.952755905511811,
          "duration": 0.03125
        },
        {
          "name": "A#2",
          "midi": 46,
          "time": 6.25,
          "velocity": 0.952755905511811,
          "duration": 0.03125
        },
        {
          "name": "F#2",
          "midi": 42,
          "time": 6.375,
          "velocity": 0.952755905511811,
          "duration": 0.03125
        },
        {
          "name": "F#2",
          "midi": 42,
          "time": 6.5,
          "velocity": 0.952755905511811,
          "duration": 0.03125
        },
        {
          "name": "C#3",
          "midi": 49,
          "time": 6.5625,
          "velocity": 0.952755905511811,
          "duration": 0.03125
        },
        {
          "name": "C#2",
          "midi": 37,
          "time": 6.625,
          "velocity": 0.952755905511811,
          "duration": 0.03125
        },
        {
          "name": "E3",
          "midi": 52,
          "time": 6.6875,
          "velocity": 0.952755905511811,
          "duration": 0.03125
        },
        {
          "name": "C#3",
          "midi": 49,
          "time": 6.75,
          "velocity": 0.952755905511811,
          "duration": 0.03125
        },
        {
          "name": "D2",
          "midi": 38,
          "time": 6.875,
          "velocity": 0.952755905511811,
          "duration": 0.03125
        },
        {
          "name": "A#2",
          "midi": 46,
          "time": 7,
          "velocity": 0.952755905511811,
          "duration": 0.03125
        },
        {
          "name": "E2",
          "midi": 40,
          "time": 7.125,
          "velocity": 0.952755905511811,
          "duration": 0.03125
        },
        {
          "name": "E3",
          "midi": 52,
          "time": 7.1875,
          "velocity": 0.952755905511811,
          "duration": 0.03125
        },
        {
          "name": "D#2",
          "midi": 39,
          "time": 7.25,
          "velocity": 0.952755905511811,
          "duration": 0.03125
        },
        {
          "name": "D#3",
          "midi": 51,
          "time": 7.3125,
          "velocity": 0.952755905511811,
          "duration": 0.03125
        },
        {
          "name": "C#2",
          "midi": 37,
          "time": 7.375,
          "velocity": 0.952755905511811,
          "duration": 0.03125
        },
        {
          "name": "A2",
          "midi": 45,
          "time": 7.5,
          "velocity": 0.952755905511811,
          "duration": 0.03125
        },
        {
          "name": "G#2",
          "midi": 44,
          "time": 7.625,
          "velocity": 0.952755905511811,
          "duration": 0.03125
        },
        {
          "name": "D3",
          "midi": 50,
          "time": 7.6875,
          "velocity": 0.952755905511811,
          "duration": 0.03125
        },
        {
          "name": "C#3",
          "midi": 49,
          "time": 7.75,
          "velocity": 0.952755905511811,
          "duration": 0.03125
        },
        {
          "name": "A2",
          "midi": 45,
          "time": 7.875,
          "velocity": 0.952755905511811,
          "duration": 0.03125
        }
      ],
      "controlChanges": {},
      "id": 0,
      "name": "21-MIDI 1",
      "channelNumber": 0,
      "isPercussion": false
    }
  ]
}